<svg width="670" height="523" viewBox="0 0 670 523" fill="none" xmlns="http://www.w3.org/2000/svg">
<g filter="url(#filter0_d_37_176)">
<g clip-path="url(#clip0_37_176)">
<mask id="path-1-inside-1_37_176" fill="white">
<path d="M55.3577 358.824C41.353 350.739 41.353 337.629 55.3577 329.544L374.912 145.049C388.917 136.963 411.623 136.963 425.627 145.049L614.163 253.9C628.168 261.986 628.168 275.095 614.163 283.181L294.609 467.676C280.604 475.761 257.898 475.761 243.893 467.676L55.3577 358.824Z"/>
</mask>
<foreignObject x="4.37953" y="104.18" width="663.276" height="404.6"><div xmlns="http://www.w3.org/1999/xhtml" style="backdrop-filter:blur(12.81px);clip-path:url(#bgblur_1_37_176_clip_path);height:100%;width:100%"></div></foreignObject><rect data-figma-bg-blur-radius="25.6205" width="428.767" height="277.95" transform="matrix(0.866025 -0.5 0.866025 0.5 30 344.184)" fill="white" fill-opacity="0.05"/>
<g opacity="0.5">
<g clip-path="url(#clip2_37_176)">
<rect x="0.887519" width="52.5197" height="39.9679" rx="4.79469" transform="matrix(0.866025 -0.5 0.866025 0.5 152.088 390.631)" fill="url(#paint0_linear_37_176)" stroke="url(#paint1_linear_37_176)" stroke-width="1.02482"/>
<path d="M164.009 395.846L176.532 388.616C177.801 387.883 179.859 387.883 181.128 388.616L187.384 392.228M202.288 400.833L195.939 397.167M195.939 397.167L187.384 392.228M195.939 397.167L181.118 405.724M187.384 392.228L172.564 400.785" stroke="#C5AF77" stroke-width="0.732014"/>
<path d="M208.142 370.366L194.045 378.505M194.045 378.505L202.6 383.444M194.045 378.505L184.244 372.846M217.503 392.048L211.155 388.383M211.155 388.383L202.6 383.444M211.155 388.383L225.251 380.244M202.6 383.444L216.696 375.305" stroke="#C5AF77" stroke-width="0.732014"/>
</g>
</g>
</g>
<path d="M30 344.184L400.27 130.409L30 344.184ZM614.163 253.9C629.568 262.794 629.568 277.215 614.163 286.109L297.145 469.14C281.739 478.034 256.763 478.034 241.358 469.14L246.429 466.211C259.033 473.489 279.469 473.489 292.073 466.211L611.627 281.717C625.632 273.631 626.767 261.177 614.163 253.9L614.163 253.9ZM297.145 469.14C281.739 478.034 256.763 478.034 241.358 469.14L55.3577 361.752C39.9526 352.858 39.9526 338.438 55.3577 329.544L55.3577 329.544C42.7535 336.821 43.8888 349.275 57.8935 357.36L246.429 466.211C259.033 473.489 279.469 473.489 292.073 466.211L297.145 469.14ZM400.27 130.409L639.521 268.541L400.27 130.409Z" fill="white" mask="url(#path-1-inside-1_37_176)"/>
</g>
<g filter="url(#filter2_d_37_176)">
<g clip-path="url(#clip3_37_176)">
<mask id="path-7-inside-2_37_176" fill="white">
<path d="M55.3577 303.824C41.353 295.739 41.353 282.629 55.3577 274.544L374.912 90.0491C388.917 81.9635 411.623 81.9635 425.627 90.0491L614.163 198.9C628.168 206.986 628.168 220.095 614.163 228.181L294.609 412.676C280.604 420.761 257.898 420.761 243.893 412.676L55.3577 303.824Z"/>
</mask>
<foreignObject x="4.37953" y="49.18" width="663.276" height="404.6"><div xmlns="http://www.w3.org/1999/xhtml" style="backdrop-filter:blur(12.81px);clip-path:url(#bgblur_4_37_176_clip_path);height:100%;width:100%"></div></foreignObject><rect data-figma-bg-blur-radius="25.6205" width="428.767" height="277.95" transform="matrix(0.866025 -0.5 0.866025 0.5 30 289.184)" fill="white" fill-opacity="0.05"/>
<g opacity="0.5">
<g clip-path="url(#clip5_37_176)">
<rect x="0.887519" width="52.5197" height="39.9679" rx="4.79469" transform="matrix(0.866025 -0.5 0.866025 0.5 152.088 335.631)" fill="url(#paint2_linear_37_176)" stroke="url(#paint3_linear_37_176)" stroke-width="1.02482"/>
<path d="M164.009 340.846L176.532 333.616C177.801 332.883 179.859 332.883 181.128 333.616L187.384 337.228M202.288 345.833L195.939 342.167M195.939 342.167L187.384 337.228M195.939 342.167L181.118 350.724M187.384 337.228L172.564 345.785" stroke="#C5AF77" stroke-width="0.732014"/>
<path d="M208.142 315.366L194.045 323.505M194.045 323.505L202.6 328.444M194.045 323.505L184.244 317.846M217.503 337.048L211.155 333.383M211.155 333.383L202.6 328.444M211.155 333.383L225.251 325.244M202.6 328.444L216.696 320.305" stroke="#C5AF77" stroke-width="0.732014"/>
</g>
</g>
</g>
<path d="M30 289.184L400.27 75.4088L30 289.184ZM614.163 198.9C629.568 207.794 629.568 222.215 614.163 231.109L297.145 414.14C281.739 423.034 256.763 423.034 241.358 414.14L246.429 411.211C259.033 418.489 279.469 418.489 292.073 411.211L611.627 226.717C625.632 218.631 626.767 206.177 614.163 198.9L614.163 198.9ZM297.145 414.14C281.739 423.034 256.763 423.034 241.358 414.14L55.3577 306.752C39.9526 297.858 39.9526 283.438 55.3577 274.544L55.3577 274.544C42.7535 281.821 43.8888 294.275 57.8935 302.36L246.429 411.211C259.033 418.489 279.469 418.489 292.073 411.211L297.145 414.14ZM400.27 75.4088L639.521 213.541L400.27 75.4088Z" fill="white" mask="url(#path-7-inside-2_37_176)"/>
</g>
<g filter="url(#filter4_d_37_176)">
<g clip-path="url(#clip6_37_176)">
<mask id="path-13-inside-3_37_176" fill="white">
<path d="M55.3577 248.416C41.353 240.33 41.353 227.221 55.3577 219.135L374.912 34.6403C388.917 26.5547 411.623 26.5547 425.627 34.6403L614.163 143.491C628.168 151.577 628.168 164.686 614.163 172.772L294.609 357.267C280.604 365.352 257.898 365.352 243.893 357.267L55.3577 248.416Z"/>
</mask>
<foreignObject x="4.37953" y="-6.22881" width="663.276" height="404.6"><div xmlns="http://www.w3.org/1999/xhtml" style="backdrop-filter:blur(12.81px);clip-path:url(#bgblur_7_37_176_clip_path);height:100%;width:100%"></div></foreignObject><rect data-figma-bg-blur-radius="25.6205" width="428.767" height="277.95" transform="matrix(0.866025 -0.5 0.866025 0.5 30 233.775)" fill="white" fill-opacity="0.05"/>
<g opacity="0.9">
<path d="M436.122 245.17L368.048 105.305L399.858 105.257L460.13 227.461L612.784 202.488C612.784 202.488 614.197 201.779 614.196 201.072C614.195 200.365 612.075 201.075 612.075 201.075L465.77 217.556L397.696 77.6911L430.92 77.6408L489.777 199.14L617.02 198.947C623.241 198.938 636.107 198.918 618.44 203.186L436.122 245.17Z" fill="url(#paint4_linear_37_176)"/>
<path d="M757.467 48.8704L428.05 49.3687L496.125 189.94L800.801 189.479C800.801 189.479 807.87 189.469 807.858 181.693C807.847 173.917 800.778 173.927 800.778 173.927L656.569 174.145C656.569 174.145 650.206 173.448 650.195 166.026C650.183 158.603 656.544 157.887 656.544 157.887L760.459 157.729C760.459 157.729 767.528 157.719 767.517 149.943C767.505 142.167 760.436 142.178 760.436 142.178L684.797 142.292C684.797 142.292 679.141 141.594 679.13 134.525C679.119 127.456 684.774 126.74 684.774 126.74L706.688 126.707C706.688 126.707 713.048 125.284 713.037 118.568C713.027 111.852 706.663 110.448 706.663 110.448L598.507 110.612C598.507 110.612 592.85 109.913 592.841 103.551C592.831 97.1891 598.484 95.7667 598.484 95.7667L722.192 95.5796C722.192 95.5796 728.554 94.8631 728.543 87.794C728.532 80.725 722.169 80.0277 722.169 80.0277L644.409 80.1453C644.409 80.1453 638.047 80.155 638.036 72.7325C638.025 65.31 644.387 65.3003 644.387 65.3003L757.492 65.1292C757.492 65.1292 763.853 64.4127 763.842 56.9902C763.83 49.5677 757.467 48.8704 757.467 48.8704Z" fill="url(#paint5_linear_37_176)"/>
</g>
<g clip-path="url(#clip8_37_176)">
<rect x="0.887519" width="52.5197" height="39.9679" rx="4.79469" transform="matrix(0.866025 -0.5 0.866025 0.5 152.088 280.222)" fill="url(#paint6_linear_37_176)" stroke="url(#paint7_linear_37_176)" stroke-width="1.02482"/>
<path d="M164.009 285.437L176.532 278.207C177.801 277.475 179.859 277.475 181.128 278.207L187.384 281.82M202.288 290.424L195.939 286.758M195.939 286.758L187.384 281.82M195.939 286.758L181.118 295.315M187.384 281.82L172.564 290.376" stroke="#C5AF77" stroke-width="0.732014"/>
<path d="M208.142 259.958L194.045 268.096M194.045 268.096L202.6 273.035M194.045 268.096L184.244 262.437M217.503 281.639L211.155 277.974M211.155 277.974L202.6 273.035M211.155 277.974L225.251 269.835M202.6 273.035L216.696 264.896" stroke="#C5AF77" stroke-width="0.732014"/>
</g>
</g>
<path d="M30 233.775L400.27 20L30 233.775ZM614.163 143.491C629.568 152.386 629.568 166.806 614.163 175.7L297.145 358.731C281.739 367.625 256.763 367.625 241.358 358.731L246.429 355.803C259.033 363.08 279.469 363.08 292.073 355.803L611.627 171.308C625.632 163.222 626.767 150.768 614.163 143.491L614.163 143.491ZM297.145 358.731C281.739 367.625 256.763 367.625 241.358 358.731L55.3577 251.344C39.9526 242.449 39.9526 228.029 55.3577 219.135L55.3577 219.135C42.7535 226.412 43.8888 238.866 57.8935 246.952L246.429 355.803C259.033 363.08 279.469 363.08 292.073 355.803L297.145 358.731ZM400.27 20L639.521 158.132L400.27 20Z" fill="white" mask="url(#path-13-inside-3_37_176)"/>
</g>
<defs>
<filter id="filter0_d_37_176" x="0" y="110.409" width="669.521" height="411.907" filterUnits="userSpaceOnUse" color-interpolation-filters="sRGB">
<feFlood flood-opacity="0" result="BackgroundImageFix"/>
<feColorMatrix in="SourceAlpha" type="matrix" values="0 0 0 0 0 0 0 0 0 0 0 0 0 0 0 0 0 0 127 0" result="hardAlpha"/>
<feOffset dy="10"/>
<feGaussianBlur stdDeviation="15"/>
<feComposite in2="hardAlpha" operator="out"/>
<feColorMatrix type="matrix" values="0 0 0 0 0.0871824 0 0 0 0 0.0971626 0 0 0 0 0.167025 0 0 0 0.4 0"/>
<feBlend mode="normal" in2="BackgroundImageFix" result="effect1_dropShadow_37_176"/>
<feBlend mode="normal" in="SourceGraphic" in2="effect1_dropShadow_37_176" result="shape"/>
</filter>
<clipPath id="bgblur_1_37_176_clip_path" transform="translate(-4.37953 -104.18)"><rect width="428.767" height="277.95" transform="matrix(0.866025 -0.5 0.866025 0.5 30 344.184)"/>
</clipPath><filter id="filter2_d_37_176" x="0" y="55.4088" width="669.521" height="411.907" filterUnits="userSpaceOnUse" color-interpolation-filters="sRGB">
<feFlood flood-opacity="0" result="BackgroundImageFix"/>
<feColorMatrix in="SourceAlpha" type="matrix" values="0 0 0 0 0 0 0 0 0 0 0 0 0 0 0 0 0 0 127 0" result="hardAlpha"/>
<feOffset dy="10"/>
<feGaussianBlur stdDeviation="15"/>
<feComposite in2="hardAlpha" operator="out"/>
<feColorMatrix type="matrix" values="0 0 0 0 0.0871824 0 0 0 0 0.0971626 0 0 0 0 0.167025 0 0 0 0.4 0"/>
<feBlend mode="normal" in2="BackgroundImageFix" result="effect1_dropShadow_37_176"/>
<feBlend mode="normal" in="SourceGraphic" in2="effect1_dropShadow_37_176" result="shape"/>
</filter>
<clipPath id="bgblur_4_37_176_clip_path" transform="translate(-4.37953 -49.18)"><rect width="428.767" height="277.95" transform="matrix(0.866025 -0.5 0.866025 0.5 30 289.184)"/>
</clipPath><filter id="filter4_d_37_176" x="0" y="0" width="669.521" height="411.907" filterUnits="userSpaceOnUse" color-interpolation-filters="sRGB">
<feFlood flood-opacity="0" result="BackgroundImageFix"/>
<feColorMatrix in="SourceAlpha" type="matrix" values="0 0 0 0 0 0 0 0 0 0 0 0 0 0 0 0 0 0 127 0" result="hardAlpha"/>
<feOffset dy="10"/>
<feGaussianBlur stdDeviation="15"/>
<feComposite in2="hardAlpha" operator="out"/>
<feColorMatrix type="matrix" values="0 0 0 0 0.0871824 0 0 0 0 0.0971626 0 0 0 0 0.167025 0 0 0 0.4 0"/>
<feBlend mode="normal" in2="BackgroundImageFix" result="effect1_dropShadow_37_176"/>
<feBlend mode="normal" in="SourceGraphic" in2="effect1_dropShadow_37_176" result="shape"/>
</filter>
<clipPath id="bgblur_7_37_176_clip_path" transform="translate(-4.37953 6.22881)"><rect width="428.767" height="277.95" transform="matrix(0.866025 -0.5 0.866025 0.5 30 233.775)"/>
</clipPath><linearGradient id="paint0_linear_37_176" x1="4.15432" y1="16.6173" x2="53.5446" y2="28.6187" gradientUnits="userSpaceOnUse">
<stop stop-color="#FFEC95"/>
<stop offset="1" stop-color="#DEA103"/>
</linearGradient>
<linearGradient id="paint1_linear_37_176" x1="3.69273" y1="2.09779e-06" x2="53.5446" y2="40.62" gradientUnits="userSpaceOnUse">
<stop stop-color="#C5AF77"/>
<stop offset="1" stop-color="#FFE7AB"/>
</linearGradient>
<linearGradient id="paint2_linear_37_176" x1="4.15432" y1="16.6173" x2="53.5446" y2="28.6187" gradientUnits="userSpaceOnUse">
<stop stop-color="#FFEC95"/>
<stop offset="1" stop-color="#DEA103"/>
</linearGradient>
<linearGradient id="paint3_linear_37_176" x1="3.69273" y1="2.09779e-06" x2="53.5446" y2="40.62" gradientUnits="userSpaceOnUse">
<stop stop-color="#C5AF77"/>
<stop offset="1" stop-color="#FFE7AB"/>
</linearGradient>
<linearGradient id="paint4_linear_37_176" x1="494.347" y1="77.5449" x2="494.601" y2="245.081" gradientUnits="userSpaceOnUse">
<stop stop-color="#9AFF4A"/>
<stop offset="1" stop-color="#00E6FF"/>
</linearGradient>
<linearGradient id="paint5_linear_37_176" x1="807.764" y1="119.485" x2="438.76" y2="120.043" gradientUnits="userSpaceOnUse">
<stop stop-color="#9AFF4A"/>
<stop offset="1" stop-color="#00E6FF"/>
</linearGradient>
<linearGradient id="paint6_linear_37_176" x1="4.15432" y1="16.6173" x2="53.5446" y2="28.6187" gradientUnits="userSpaceOnUse">
<stop stop-color="#FFEC95"/>
<stop offset="1" stop-color="#DEA103"/>
</linearGradient>
<linearGradient id="paint7_linear_37_176" x1="3.69273" y1="2.09779e-06" x2="53.5446" y2="40.62" gradientUnits="userSpaceOnUse">
<stop stop-color="#C5AF77"/>
<stop offset="1" stop-color="#FFE7AB"/>
</linearGradient>
<clipPath id="clip0_37_176">
<path d="M55.3577 358.824C41.353 350.739 41.353 337.629 55.3577 329.544L374.912 145.049C388.917 136.963 411.623 136.963 425.627 145.049L614.163 253.9C628.168 261.986 628.168 275.095 614.163 283.181L294.609 467.676C280.604 475.761 257.898 475.761 243.893 467.676L55.3577 358.824Z" fill="white"/>
</clipPath>
<clipPath id="clip2_37_176">
<rect width="53.5446" height="40.9928" fill="white" transform="matrix(0.866025 -0.5 0.866025 0.5 151.969 390.187)"/>
</clipPath>
<clipPath id="clip3_37_176">
<path d="M55.3577 303.824C41.353 295.739 41.353 282.629 55.3577 274.544L374.912 90.0491C388.917 81.9635 411.623 81.9635 425.627 90.0491L614.163 198.9C628.168 206.986 628.168 220.095 614.163 228.181L294.609 412.676C280.604 420.761 257.898 420.761 243.893 412.676L55.3577 303.824Z" fill="white"/>
</clipPath>
<clipPath id="clip5_37_176">
<rect width="53.5446" height="40.9928" fill="white" transform="matrix(0.866025 -0.5 0.866025 0.5 151.969 335.187)"/>
</clipPath>
<clipPath id="clip6_37_176">
<path d="M55.3577 248.416C41.353 240.33 41.353 227.221 55.3577 219.135L374.912 34.6403C388.917 26.5547 411.623 26.5547 425.627 34.6403L614.163 143.491C628.168 151.577 628.168 164.686 614.163 172.772L294.609 357.267C280.604 365.352 257.898 365.352 243.893 357.267L55.3577 248.416Z" fill="white"/>
</clipPath>
<clipPath id="clip8_37_176">
<rect width="53.5446" height="40.9928" fill="white" transform="matrix(0.866025 -0.5 0.866025 0.5 151.969 279.779)"/>
</clipPath>
</defs>
</svg>
